<?xml version="1.0" standalone="no"?><!-- Generator: Gravit.io --><svg xmlns="http://www.w3.org/2000/svg" xmlns:xlink="http://www.w3.org/1999/xlink" style="isolation:isolate" viewBox="208.49960549709908 300 202.74246076872623 200.49999165534973" width="202.74246076872623" height="200.49999165534973"><circle vector-effect="non-scaling-stroke" cx="0" cy="0" r="1" fill="rgb(253,163,108)" transform="matrix(100.24999582767487,0,0,100.24999582767487,308.74960132477395,400.24999582767487)" stroke-width="100.24999582767487" stroke="rgb(0,0,0)" stroke-opacity="0"/><path d="M 280.47821370175694 439.0889618293213 L 268.60643032598625 448.24362594973013 C 279.7484399263694 458.5001498170571 294.20201022201087 464.6129205256475 309.43793638247456 465.41069422111366 C 326.7250623322582 466.3158715111384 343.7257857046285 460.31087600851174 356.5968349189153 448.72673023123986 C 369.46788413320223 437.14258445396786 377.2191784806155 420.87037653876394 378.1247855548726 403.59145473663347 C 378.7477916010734 391.7045414598232 376.098898004053 379.9531083349781 370.5999532836711 369.59356844948616 L 358.6914894759226 378.77651787665275 C 362.20961736302013 386.20815841966 363.86275114225225 394.46659375723135 363.42484852274356 402.82174615668055 C 362.7225409957686 416.2217263297611 356.6971790546377 428.81258599395943 346.7344919224248 437.77916036963626 C 336.77180479021257 446.74573474531314 323.61435299851166 451.41970772993363 310.2080104252101 450.7177335050163 C 299.2455346726851 450.1437234513812 288.82433150696806 446.0121601038138 280.47821370175694 439.0889618293213 Z M 268.60643032598625 448.24362594973013 C 267.09759804105636 446.87388672519023 265.656397028417 445.41944682506073 264.281230357146 443.89296034913457 C 263.63865865911964 443.1796817136483 263.0132453718584 442.453714514201 262.41543619620967 441.70870252236244 L 272.40470442427215 430.538352927378 C 273.27079169425696 431.75540804670356 274.2252428740745 432.91554167053596 275.2339981981502 434.03529783674446 C 276.8693076038137 435.85055248467233 278.6251103314882 437.5350306737565 280.47821370175694 439.0889618293213 L 268.60643032598625 448.24362594973013 Z M 272.40470442427215 430.538352927378 L 262.41543619620967 441.70870252236244 C 252.0466429561481 429.14287156153006 246.73394775174546 413.07735871896347 247.58934470956842 396.75644254665036 C 248.4949517838253 379.4775207445201 256.2462461312383 363.2053128293161 269.1172953455252 351.62116705204414 C 281.98834455981273 340.0370212747722 298.98906793218237 334.03202577214574 316.2761938819659 334.9372030621705 C 327.8416318771591 335.54278503414486 338.9562627246713 339.2109613460485 348.5138897109526 345.43039630515517 L 338.52543494138126 356.59983626236476 C 331.5964640545548 352.47730303391603 323.7025860680327 350.0593418330999 315.50611983923045 349.63016377826773 C 302.0997772659291 348.9281895533505 288.94232547422865 353.6021625379709 278.97963834201596 362.5687369136478 C 269.01695120980327 371.53531128932457 262.99158926867193 384.1261709535229 262.289281741697 397.5261511266033 C 261.6659475446788 409.4193254988453 265.27951529610505 421.11652972529544 272.40470442427215 430.538352927378 Z M 312.42734817960877 416.18344166270407 L 296.5289810269251 427.7849851367178 C 301.4433022949034 431.1098272817279 307.20239202491445 433.0985986552196 313.21069852225355 433.51845500818007 C 322.2215129273836 434.01125370623157 331.1146184166188 430.9397574877006 337.8159809484057 424.85882511399393 C 344.58081426068156 418.85024891101847 348.71361121317 410.3520398876493 349.2108455013027 401.28538890189054 C 349.4752264837342 397.5001378593521 349.0973331848938 393.73460955651126 348.12487643726524 390.1338214709766 L 332.11826959823384 401.8143508820193 C 331.57110612339284 405.77658021544283 329.63671820686955 409.4026163538505 326.64937134784407 412.05600046822354 C 323.262706926034 415.12842716679495 318.8140302985809 416.6982445746021 314.27688770577095 416.41566714021087 C 313.652494986134 416.37677938450133 313.0341218523657 416.30328887980033 312.42734817960877 416.18344166270407 Z M 296.5289810269251 427.7849851367178 C 294.0738202583929 426.139184336343 291.83158611275996 424.1560942013353 289.8712502661742 421.8727829714703 C 287.9168874721514 419.6448253679344 286.275940820324 417.18683505789784 284.9785127069815 414.56894053029623 L 298.39496730731423 400.0664794908731 C 298.5253360194187 403.9383435212501 299.9844668533591 407.63946881057694 302.5415689144056 410.5545442496665 C 305.1105003217092 413.54604255691254 308.6019341240084 415.5266914885541 312.42734817960877 416.18344166270407 L 296.5289810269251 427.7849851367178 Z M 298.39496730731423 400.0664794908731 L 284.9785127069815 414.56894053029623 C 282.30451710130535 409.1987869005713 281.0668718244458 403.15883561362307 281.4922993399593 397.0678152542582 C 281.98953362809203 388.0011642684992 286.1223305805803 379.50295524513024 292.8236931123663 373.4220228714235 C 299.5885264246428 367.41344666844776 308.4139133677167 364.33773287626946 317.4247277728465 364.83053157432096 C 321.2989452132293 365.07182141747296 325.05728786873783 365.9792012845231 328.5521976107774 367.4681462827825 L 315.24665612951543 381.85071624546407 C 311.14886390437806 381.89338113900413 307.1937779864367 383.4438622069706 304.05802125908906 386.2290650908415 C 300.67560460295147 389.2333531923294 298.6388176341163 393.5527050879212 298.42193588029505 398.12220866616633 C 298.3716207179859 398.77358142387794 298.358855886995 399.4231075819557 298.39496730731423 400.0664794908731 Z M 357.1878482869469 330.1902137813938 L 357.86515048977407 345.76077144148724 L 312.48590290035503 395.18036749308794 Q 308.9470013168416 399.15763240937633 313.16320510318224 403.3041367070498 Q 317.3794088895228 407.45064100472314 320.6135293342808 403.30413670704974 L 370.0565901406628 357.9464252624299 L 385.63454080568704 358.62340603026 L 409.3401179046372 342.3758676023365 Q 411.6598820953561 340.4972472386354 409.3401179046373 338.9909637631857 Q 407.02035371391867 337.48468028773607 385.63454080568704 330.867194549224 Q 377.6931738339828 308.22218839794135 377.50691437176135 307.84984844299896 C 377.3206549095398 307.47750848805657 376.19464253461683 303.2125308128411 373.4431011547984 307.17286767516885 Q 370.6915597749802 311.13320453749657 357.1878482869469 330.1902137813938 Z" style="stroke:none;fill:#FC6721;stroke-miterlimit:10;"/><path d="M 280.47821370175694 439.0889618293213 L 268.60643032598625 448.24362594973013 C 279.7484399263694 458.5001498170571 294.20201022201087 464.6129205256475 309.43793638247456 465.41069422111366 C 326.7250623322582 466.3158715111384 343.7257857046285 460.31087600851174 356.5968349189153 448.72673023123986 C 369.46788413320223 437.14258445396786 377.2191784806155 420.87037653876394 378.1247855548726 403.59145473663347 C 378.7477916010734 391.7045414598232 376.098898004053 379.9531083349781 370.5999532836711 369.59356844948616 L 358.6914894759226 378.77651787665275 C 362.20961736302013 386.20815841966 363.86275114225225 394.46659375723135 363.42484852274356 402.82174615668055 C 362.7225409957686 416.2217263297611 356.6971790546377 428.81258599395943 346.7344919224248 437.77916036963626 C 336.77180479021257 446.74573474531314 323.61435299851166 451.41970772993363 310.2080104252101 450.7177335050163 C 299.2455346726851 450.1437234513812 288.82433150696806 446.0121601038138 280.47821370175694 439.0889618293213 Z M 268.60643032598625 448.24362594973013 C 267.09759804105636 446.87388672519023 265.656397028417 445.41944682506073 264.281230357146 443.89296034913457 C 263.63865865911964 443.1796817136483 263.0132453718584 442.453714514201 262.41543619620967 441.70870252236244 L 272.40470442427215 430.538352927378 C 273.27079169425696 431.75540804670356 274.2252428740745 432.91554167053596 275.2339981981502 434.03529783674446 C 276.8693076038137 435.85055248467233 278.6251103314882 437.5350306737565 280.47821370175694 439.0889618293213 L 268.60643032598625 448.24362594973013 Z M 272.40470442427215 430.538352927378 L 262.41543619620967 441.70870252236244 C 252.0466429561481 429.14287156153006 246.73394775174546 413.07735871896347 247.58934470956842 396.75644254665036 C 248.4949517838253 379.4775207445201 256.2462461312383 363.2053128293161 269.1172953455252 351.62116705204414 C 281.98834455981273 340.0370212747722 298.98906793218237 334.03202577214574 316.2761938819659 334.9372030621705 C 327.8416318771591 335.54278503414486 338.9562627246713 339.2109613460485 348.5138897109526 345.43039630515517 L 338.52543494138126 356.59983626236476 C 331.5964640545548 352.47730303391603 323.7025860680327 350.0593418330999 315.50611983923045 349.63016377826773 C 302.0997772659291 348.9281895533505 288.94232547422865 353.6021625379709 278.97963834201596 362.5687369136478 C 269.01695120980327 371.53531128932457 262.99158926867193 384.1261709535229 262.289281741697 397.5261511266033 C 261.6659475446788 409.4193254988453 265.27951529610505 421.11652972529544 272.40470442427215 430.538352927378 Z M 312.42734817960877 416.18344166270407 L 296.5289810269251 427.7849851367178 C 301.4433022949034 431.1098272817279 307.20239202491445 433.0985986552196 313.21069852225355 433.51845500818007 C 322.2215129273836 434.01125370623157 331.1146184166188 430.9397574877006 337.8159809484057 424.85882511399393 C 344.58081426068156 418.85024891101847 348.71361121317 410.3520398876493 349.2108455013027 401.28538890189054 C 349.4752264837342 397.5001378593521 349.0973331848938 393.73460955651126 348.12487643726524 390.1338214709766 L 332.11826959823384 401.8143508820193 C 331.57110612339284 405.77658021544283 329.63671820686955 409.4026163538505 326.64937134784407 412.05600046822354 C 323.262706926034 415.12842716679495 318.8140302985809 416.6982445746021 314.27688770577095 416.41566714021087 C 313.652494986134 416.37677938450133 313.0341218523657 416.30328887980033 312.42734817960877 416.18344166270407 Z M 296.5289810269251 427.7849851367178 C 294.0738202583929 426.139184336343 291.83158611275996 424.1560942013353 289.8712502661742 421.8727829714703 C 287.9168874721514 419.6448253679344 286.275940820324 417.18683505789784 284.9785127069815 414.56894053029623 L 298.39496730731423 400.0664794908731 C 298.5253360194187 403.9383435212501 299.9844668533591 407.63946881057694 302.5415689144056 410.5545442496665 C 305.1105003217092 413.54604255691254 308.6019341240084 415.5266914885541 312.42734817960877 416.18344166270407 L 296.5289810269251 427.7849851367178 Z M 298.39496730731423 400.0664794908731 L 284.9785127069815 414.56894053029623 C 282.30451710130535 409.1987869005713 281.0668718244458 403.15883561362307 281.4922993399593 397.0678152542582 C 281.98953362809203 388.0011642684992 286.1223305805803 379.50295524513024 292.8236931123663 373.4220228714235 C 299.5885264246428 367.41344666844776 308.4139133677167 364.33773287626946 317.4247277728465 364.83053157432096 C 321.2989452132293 365.07182141747296 325.05728786873783 365.9792012845231 328.5521976107774 367.4681462827825 L 315.24665612951543 381.85071624546407 C 311.14886390437806 381.89338113900413 307.1937779864367 383.4438622069706 304.05802125908906 386.2290650908415 C 300.67560460295147 389.2333531923294 298.6388176341163 393.5527050879212 298.42193588029505 398.12220866616633 C 298.3716207179859 398.77358142387794 298.358855886995 399.4231075819557 298.39496730731423 400.0664794908731 Z M 357.1878482869469 330.1902137813938 L 357.86515048977407 345.76077144148724 L 312.48590290035503 395.18036749308794 Q 308.9470013168416 399.15763240937633 313.16320510318224 403.3041367070498 Q 317.3794088895228 407.45064100472314 320.6135293342808 403.30413670704974 L 370.0565901406628 357.9464252624299 L 385.63454080568704 358.62340603026 L 409.3401179046372 342.3758676023365 Q 411.6598820953561 340.4972472386354 409.3401179046373 338.9909637631857 Q 407.02035371391867 337.48468028773607 385.63454080568704 330.867194549224 Q 377.6931738339828 308.22218839794135 377.50691437176135 307.84984844299896 C 377.3206549095398 307.47750848805657 376.19464253461683 303.2125308128411 373.4431011547984 307.17286767516885 Q 370.6915597749802 311.13320453749657 357.1878482869469 330.1902137813938 Z" style="fill:none;stroke:#FC6721;stroke-width:1;stroke-linecap:square;"/></svg>