<?xml version="1.0" standalone="no"?><!-- Generator: Gravit.io --><svg xmlns="http://www.w3.org/2000/svg" xmlns:xlink="http://www.w3.org/1999/xlink" style="isolation:isolate" viewBox="603.30645733213 307.7499853372574 200.49999165534973 200.49999165534973" width="200.49999165534973" height="200.49999165534973"><circle vector-effect="non-scaling-stroke" cx="0" cy="0" r="1" fill="rgb(253,163,108)" transform="matrix(100.24999582767487,0,0,100.24999582767487,703.5564531598048,407.99998116493225)" stroke-width="100.24999582767487" stroke="rgb(0,0,0)" stroke-opacity="0"/><path d="M 712.7621359223301 387.2638320102416 L 712.7621359223301 473.5 L 773.4999999999999 453.0929678802861 L 773.5 367.51509124922813 L 712.7621359223301 387.2638320102416 Z M 649.3834951456311 359.6155949448229 L 706.1601941747573 378.0477529884354 L 761.6165048543688 359.6155949448229 L 706.1601941747573 342.5 L 649.3834951456311 359.6155949448229 Z M 637.5 367.51509124922813 L 637.5 453.0929678802861 L 698.23786407767 473.5 L 698.23786407767 387.2638320102416 L 637.5 367.51509124922813 Z" style="stroke:none;fill:#FC6721;stroke-miterlimit:10;"/><path d="M 712.7621359223301 387.2638320102416 L 712.7621359223301 473.5 L 773.4999999999999 453.0929678802861 L 773.5 367.51509124922813 L 712.7621359223301 387.2638320102416 Z M 649.3834951456311 359.6155949448229 L 706.1601941747573 378.0477529884354 L 761.6165048543688 359.6155949448229 L 706.1601941747573 342.5 L 649.3834951456311 359.6155949448229 Z M 637.5 367.51509124922813 L 637.5 453.0929678802861 L 698.23786407767 473.5 L 698.23786407767 387.2638320102416 L 637.5 367.51509124922813 Z" style="fill:none;stroke:#FC6721;stroke-width:1;stroke-linecap:square;"/></svg>